<?xml version="1.0" standalone="no"?>
<!DOCTYPE svg PUBLIC "-//W3C//DTD SVG 20010904//EN"
 "http://www.w3.org/TR/2001/REC-SVG-20010904/DTD/svg10.dtd">
<svg version="1.0" xmlns="http://www.w3.org/2000/svg"
 width="500.000000pt" height="500.000000pt" viewBox="0 0 500.000000 500.000000"
 preserveAspectRatio="xMidYMid meet">

<g transform="translate(0.000000,500.000000) scale(0.100000,-0.100000)"
fill="#000000" stroke="none">
<path d="M2474 4669 c-11 -6 -47 -55 -79 -110 -55 -91 -62 -99 -90 -99 -26 0
-43 14 -109 85 -61 67 -83 85 -105 85 -43 0 -56 -17 -96 -130 -21 -58 -38
-106 -40 -107 -1 -2 -15 -5 -31 -8 -24 -5 -43 4 -118 59 -141 103 -165 93
-191 -82 -16 -104 -20 -114 -44 -126 -24 -12 -35 -9 -133 36 -115 54 -150 57
-164 15 -5 -12 -7 -73 -5 -136 3 -109 2 -115 -19 -131 -22 -16 -28 -16 -137
12 -120 30 -141 29 -163 -12 -8 -15 -3 -47 18 -133 28 -112 29 -114 10 -137
-18 -22 -22 -23 -134 -18 -103 5 -117 3 -139 -14 -14 -11 -25 -28 -25 -38 0
-10 22 -65 49 -122 44 -96 47 -107 35 -130 -12 -23 -24 -27 -126 -43 -175 -26
-186 -51 -83 -191 36 -49 65 -93 65 -99 -1 -43 -14 -54 -103 -85 -139 -49
-147 -55 -147 -95 0 -29 10 -43 85 -111 72 -65 85 -82 85 -108 0 -29 -8 -36
-104 -94 -103 -63 -118 -79 -108 -124 2 -9 50 -45 108 -80 96 -58 104 -65 104
-94 0 -26 -13 -43 -85 -108 -67 -61 -85 -83 -85 -105 0 -43 18 -56 132 -96
105 -37 117 -46 118 -90 0 -6 -29 -50 -65 -99 -98 -132 -89 -164 50 -185 144
-22 145 -22 159 -49 12 -23 9 -34 -35 -130 -27 -57 -49 -112 -49 -122 0 -10
11 -27 25 -38 22 -17 36 -19 139 -14 112 5 116 4 134 -18 19 -23 18 -25 -9
-133 -44 -175 -27 -192 144 -149 112 28 114 29 137 10 22 -18 23 -22 18 -134
-5 -103 -3 -117 14 -139 11 -14 27 -25 37 -25 10 0 65 22 122 49 96 45 106 48
130 35 24 -12 28 -22 44 -126 26 -175 50 -185 190 -83 85 62 116 74 141 57 6
-4 28 -53 48 -109 45 -122 54 -135 92 -136 24 0 44 16 109 87 67 71 85 86 110
86 28 0 36 -9 90 -101 91 -153 118 -153 210 2 55 91 62 99 90 99 26 0 43 -14
109 -85 68 -75 81 -85 111 -85 40 0 47 10 94 145 18 49 37 93 44 97 27 17 56
5 142 -57 139 -102 164 -91 189 78 9 59 16 110 16 112 0 2 12 11 28 19 25 13
33 11 131 -35 57 -27 112 -49 121 -49 9 0 25 9 36 21 17 19 19 34 16 140 -4
114 -3 120 19 138 22 17 25 17 136 -11 86 -21 118 -26 133 -18 41 22 42 43 12
163 -28 112 -29 114 -10 137 18 22 22 23 134 18 103 -5 117 -3 139 14 14 11
25 27 25 37 0 10 -22 65 -49 122 -45 96 -48 106 -35 130 14 28 14 28 159 50
139 21 148 53 50 185 -36 49 -65 93 -65 99 1 44 13 54 115 90 124 44 138 53
138 91 0 24 -16 44 -87 109 -72 66 -86 85 -86 110 0 27 9 36 100 90 108 65
131 95 104 133 -8 11 -57 47 -109 79 -128 78 -128 88 -9 198 71 65 87 85 87
109 -1 38 -14 47 -138 91 -102 36 -114 46 -115 90 0 6 29 50 65 99 103 140 92
165 -83 191 -102 16 -114 20 -126 43 -12 23 -9 34 35 130 27 57 49 112 49 122
0 10 -11 27 -25 38 -22 17 -36 19 -139 14 -112 -5 -116 -4 -134 18 -19 23 -18
25 10 137 21 86 26 118 18 133 -22 41 -43 42 -163 12 -108 -27 -116 -28 -136
-13 -21 16 -22 23 -20 139 3 106 1 124 -16 142 -10 11 -26 20 -35 20 -9 0 -64
-22 -121 -49 -98 -46 -106 -48 -131 -35 -16 8 -28 17 -28 19 0 2 -7 53 -16
112 -25 169 -50 180 -189 78 -49 -36 -94 -65 -100 -65 -35 1 -55 15 -66 49
-40 124 -70 188 -95 200 -35 15 -52 4 -139 -93 -57 -64 -73 -76 -99 -76 -29 0
-36 8 -94 105 -35 58 -67 105 -72 105 -4 0 -14 2 -22 4 -7 3 -22 0 -34 -5z
m-148 -719 l122 -120 52 0 52 0 122 120 123 120 86 -20 c390 -93 765 -367 977
-715 l43 -70 -72 -141 c-110 -220 -105 -237 109 -344 163 -81 153 -63 153
-275 -1 -399 -128 -745 -387 -1048 l-45 -53 -103 15 -103 16 -3 333 -2 332
-310 0 -310 0 0 -140 0 -140 150 0 150 0 0 -165 0 -164 -37 -8 c-21 -4 -99 -8
-173 -8 -135 0 -135 0 -198 34 -34 19 -79 52 -98 74 -123 136 -161 457 -79
661 l24 60 -204 -204 -205 -205 6 -50 c33 -276 159 -482 356 -578 143 -71 348
-94 584 -66 52 6 97 10 99 7 2 -2 -1 -36 -7 -76 l-12 -72 -53 -25 c-211 -96
-482 -141 -751 -124 -176 11 -373 59 -515 124 l-52 25 -27 162 c-25 154 -28
164 -57 190 -17 15 -42 30 -56 34 -14 4 -96 -5 -181 -18 l-156 -25 -58 70
c-168 199 -292 456 -345 711 -29 143 -39 406 -19 504 3 17 36 38 143 92 215
107 220 122 110 343 l-71 143 42 69 c23 39 71 106 105 150 62 80 237 255 275
275 20 11 20 7 20 -755 l0 -765 231 0 230 0 -23 -29 c-13 -16 -126 -147 -252
-292 l-229 -264 595 600 596 600 -14 33 c-24 60 -72 110 -136 141 -34 17 -69
31 -79 31 -38 0 -26 18 26 39 63 26 126 90 158 159 17 39 21 66 22 162 0 106
-2 119 -28 172 -35 72 -108 138 -184 167 -125 48 -180 54 -523 60 l-325 6 101
58 c124 70 269 131 389 162 50 13 94 24 99 24 5 1 64 -53 132 -119z m-166
-411 c110 -17 159 -61 168 -147 3 -36 -1 -62 -16 -96 -18 -40 -29 -50 -77 -72
-50 -23 -68 -26 -208 -27 l-152 -2 -3 165 c-1 90 0 170 2 177 7 16 191 18 286
2z m39 -620 c57 -12 104 -41 135 -82 17 -24 21 -43 21 -112 0 -93 -13 -120
-75 -162 -52 -36 -95 -43 -257 -43 l-153 0 0 205 0 205 140 0 c76 0 162 -5
189 -11z"/>
<path d="M3180 2914 c-381 -381 -429 -432 -387 -414 104 46 293 42 445 -10 48
-17 91 -31 96 -33 8 -2 120 253 114 259 -12 11 -131 50 -209 68 l-96 21 239
273 c131 149 237 272 236 272 -2 0 -199 -196 -438 -436z"/>
</g>
</svg>
